<svg width="36" height="36" viewBox="0 0 36 36" fill="none" xmlns="http://www.w3.org/2000/svg" xmlns:xlink="http://www.w3.org/1999/xlink">
<path d="M7.08,4C7.2,5.78 7.5,7.52 7.98,9.18L5.58,11.58C4.76,9.18 4.24,6.64 4.06,4L7.08,4L7.08,4ZM26.8,28.04C28.5,28.52 30.24,28.82 32,28.94L32,31.92C29.36,31.74 26.82,31.22 24.4,30.42L26.8,28.04L26.8,28.04ZM9,0L2,0C0.9,0 0,0.9 0,2C0,20.78 15.22,36 34,36C35.1,36 36,35.1 36,34L36,27.02C36,25.92 35.1,25.02 34,25.02C31.52,25.02 29.1,24.62 26.86,23.88C26.66,23.8 26.44,23.78 26.24,23.78C25.72,23.78 25.22,23.98 24.82,24.36L20.42,28.76C14.76,25.86 10.12,21.24 7.24,15.58L11.64,11.18C12.2,10.62 12.36,9.84 12.14,9.14C11.4,6.9 11,4.5 11,2C11,0.9 10.1,0 9,0Z" clip-rule="evenodd" fill-rule="evenodd" fill="#FF0000"/>
</svg>
