<svg width="28" height="40" viewBox="0 0 28 40" fill="none" xmlns="http://www.w3.org/2000/svg" xmlns:xlink="http://www.w3.org/1999/xlink">
<path d="M14,0C21.74,0 28,6.26 28,14C28,24.5 14,40 14,40C14,40 0,24.5 0,14C0,6.26 6.26,0 14,0ZM4,14C4,19.7 9.84,28.42 14,33.76C18.24,28.38 24,19.76 24,14C24,8.48 19.52,4 14,4C8.48,4 4,8.48 4,14ZM14,19C11.239,19 9,16.761 9,14C9,11.239 11.239,9 14,9C16.761,9 19,11.239 19,14C19,16.761 16.761,19 14,19Z" clip-rule="evenodd" fill-rule="evenodd" fill="#FF0000"/>
</svg>
