<svg width="24" height="18" viewBox="0 0 24 18" fill="none" xmlns="http://www.w3.org/2000/svg" xmlns:xlink="http://www.w3.org/1999/xlink">
<path d="M3.241,7.164L21.863,7.164C22.62,7.164 23.234,7.777 23.234,8.534C23.234,9.291 22.62,9.905 21.863,9.905L3.241,9.905L7.686,14.35C8.221,14.885 8.221,15.753 7.686,16.288C7.151,16.823 6.283,16.823 5.748,16.288L-0.068,10.473C-1.138,9.402 -1.138,7.666 -0.068,6.596L5.748,0.78C6.283,0.245 7.151,0.245 7.686,0.78C8.221,1.316 8.221,2.184 7.686,2.719L3.241,7.164Z" transform="rotate(360 11.182 8.534)" fill="#FFFFFF"/>
</svg>
