<svg width="42" height="34" viewBox="0 0 42 34" fill="none" xmlns="http://www.w3.org/2000/svg" xmlns:xlink="http://www.w3.org/1999/xlink">
<path d="M40.92,4C39.38,4.7 37.72,5.16 36,5.38C37.76,4.32 39.12,2.64 39.76,0.62C38.1,1.62 36.26,2.32 34.32,2.72C32.74,1 30.52,0 28,0C23.3,0 19.46,3.84 19.46,8.58C19.46,9.26 19.54,9.92 19.68,10.54C12.56,10.18 6.22,6.76 2,1.58C1.26,2.84 0.84,4.32 0.84,5.88C0.84,8.86 2.34,11.5 4.66,13C3.24,13 1.92,12.6 0.76,12L0.76,12.06C0.76,16.22 3.72,19.7 7.64,20.48C6.381,20.824 5.06,20.872 3.78,20.62C4.323,22.325 5.387,23.817 6.822,24.886C8.257,25.955 9.991,26.547 11.78,26.58C8.747,28.981 4.988,30.279 1.12,30.26C0.44,30.26 -0.24,30.22 -0.92,30.14C2.88,32.58 7.4,34 12.24,34C28,34 36.66,20.92 36.66,9.58C36.66,9.2 36.66,8.84 36.64,8.46C38.32,7.26 39.76,5.74 40.92,4Z" fill="#FFFFFF"/>
</svg>
