<svg width="44" height="44" viewBox="0 0 44 44" fill="none" xmlns="http://www.w3.org/2000/svg" xmlns:xlink="http://www.w3.org/1999/xlink">
<path d="M22,-1C9.85,-1 0,8.85 0,21C0,33.15 9.85,43 22,43C34.15,43 44,33.15 44,21C44,8.85 34.15,-1 22,-1ZM31.536,17.28C31.712,17.079 31.845,16.845 31.929,16.592C32.013,16.339 32.045,16.072 32.025,15.806C32.004,15.54 31.93,15.281 31.807,15.044C31.685,14.807 31.516,14.597 31.311,14.427C31.106,14.256 30.869,14.128 30.614,14.05C30.359,13.972 30.091,13.946 29.826,13.974C29.56,14.001 29.303,14.081 29.069,14.209C28.836,14.337 28.63,14.511 28.464,14.72L19.864,25.038L15.414,20.586C15.037,20.222 14.532,20.02 14.007,20.025C13.483,20.029 12.981,20.24 12.61,20.61C12.24,20.981 12.029,21.483 12.025,22.007C12.02,22.532 12.222,23.037 12.586,23.414L18.586,29.414C18.783,29.61 19.018,29.764 19.277,29.864C19.536,29.965 19.813,30.01 20.091,29.997C20.368,29.985 20.64,29.914 20.889,29.791C21.138,29.667 21.358,29.493 21.536,29.28L31.536,17.28Z" clip-rule="evenodd" fill-rule="evenodd" fill="#FFFFFF"/>
</svg>
