<svg width="36" height="36" viewBox="0 0 36 36" fill="none" xmlns="http://www.w3.org/2000/svg" xmlns:xlink="http://www.w3.org/1999/xlink">
<path d="M24.804,36L24.804,22.068L29.47,22.068L30.168,16.652L24.804,16.652L24.804,13.196C24.804,11.628 25.24,10.558 27.488,10.558L30.356,10.558L30.356,5.714C28.968,5.567 27.572,5.495 26.176,5.5C22.042,5.5 19.212,8.024 19.212,12.66L19.212,16.652L14.536,16.652L14.536,22.068L19.212,22.068L19.212,36L2,36C1.47,36 0.961,35.789 0.586,35.414C0.211,35.039 0,34.53 0,34L0,2C0,1.47 0.211,0.961 0.586,0.586C0.961,0.211 1.47,0 2,0L34,0C34.53,0 35.039,0.211 35.414,0.586C35.789,0.961 36,1.47 36,2L36,34C36,34.53 35.789,35.039 35.414,35.414C35.039,35.789 34.53,36 34,36L24.804,36Z" fill="#FFFFFF"/>
</svg>
